<svg version="1.2" xmlns="http://www.w3.org/2000/svg" viewBox="0 0 133 83" width="133" height="83"><style>.a{fill:#00539f}.b{fill:#ee1c2e}</style><path class="a" d="m26.7 55.1c-0.2 0.1 0 0.4-0.1 0.7-0.1 0.1-0.5 0.4-0.8 0.6-1.6 1.3-3.5 2.4-6.1 2.7-0.6 0.1-1.3 0.2-1.5-0.5-0.1-0.5 0.4-1.5 0.5-2 0.3-0.7 0.6-1.2 0.8-1.9 2.4-0.9 5-1.7 7.2-2.9 0.3-0.1 0.7-0.3 0.7-0.7 0-0.3-0.4-0.5-0.6-0.8-0.9 0.8-2.4 1.3-3.7 1.8-1 0.4-1.9 0.9-2.9 1.2 0-0.1 0.2-0.6 0.3-0.7 0.6-1.1 1.1-2.1 1.7-3.2 0.3-0.4 0.6-1.1 0.9-1.3 0.9-0.3 2.4-0.2 3.5-0.1 1.2 0.1 2.3 0.5 3.1 0.6 0.1-0.5-0.4-0.7-0.8-0.9-2.1-0.7-5-1.2-7.3-0.3-0.4 0.1-0.8 0.3-1.2 0.5-0.4 0.1-1.1 0.4-1.1 0.6-0.1 0.4 0.3 0.9 0.6 0.9 0.5 0 0.8-0.4 1.1-0.6q0.1 0 0.2-0.1c-0.4 1.1-1.5 2.9-1.9 3.8-0.2 0.4-0.4 0.8-0.6 1.1-0.3 0.1-0.7 0-1 0-0.1 0.7 0.2 0.9 0.5 1.3-0.4 1-0.6 1.5-1.1 2.7-0.2 0.6-0.1 1.1 0 1.4 0.5 1.1 1.5 1.5 3.1 1.2 3.2-0.6 5.9-2.7 6.3-3 0.4-0.3 0.9-0.6 1-0.9 0-0.4-0.1-0.5-0.3-0.7-0.2-0.3-0.2-0.5-0.5-0.5"/><path class="a" d="m34.3 52.2c0-0.3-0.3-0.5-0.5-0.6-0.5 0.1-0.9 0.5-1.2 0.9-0.8 0.8-1.4 1.6-2.1 2.4-0.3 0.4-0.5 0.9-0.9 1.2 0.1-1.5 0.4-3.2 0.6-4.6-0.2-0.3-0.4-0.6-0.8-0.7-0.4 1-0.7 2.5-0.9 4 0 0.6-0.1 1.5 0 2.2 0.1 0.7 0.3 1.8 1.1 1.6 1.1-1.9 2.6-3.9 4.2-5.5 0.2-0.2 0.6-0.6 0.6-0.8"/><path class="a" d="m50.5 51.8c-0.4 0-0.7 0.7-0.9 1.1-0.2 0.4-1.8 3.8-2.9 4.2-0.2-0.5-0.2-1.5-0.2-2.2 0-0.7 0.4-2 0.2-2.6 0-0.3-0.3-0.7-0.6-0.8-0.1-0.1-0.2 0-0.4 0.3-0.1 0.2-0.2 1.6-0.3 2.7-0.1 1.5 0.3 3.9 1.6 3.9 0.8 0 2.4-2.9 2.7-3.3 0 0 0.1 0 0.1 0.1-0.5 2.8-1.3 5-2.8 6.9-0.8 1-1.9 1.3-3.4 0.8-1.2-0.3-2.3-0.6-3.1-1.4-0.3-0.3-0.4-0.5-0.5-1-0.2 0.1-0.5-0.1-0.6 0-0.1 0.3 0 0.7 0.1 1 0.9 1.5 2.2 2.1 3.7 2.5 1.3 0.3 2.5 0.6 3.5 0.1 1.5-0.7 2.3-2.4 2.8-4 0.5-1.6 1-3.1 1.3-5.1 0.1-0.6 0.4-2.1 0.3-2.6-0.1-0.3-0.4-0.6-0.7-0.6"/><path fill-rule="evenodd" class="a" d="m39.5 55.8c0 0 0 0 0 0-1.3 1.5-3.8 4-5.3 2.1 0 0 0 0 0-0.1-0.2 0.1-0.4 0.2-0.6 0.2-0.4 0-0.8-0.5-0.7-0.8 0-0.3 0.7-0.3 0.9-0.6 0.2-1.1 0.4-2.1 0.9-3 0.3-0.6 1-2.1 1.7-2.2 1.2-0.2 1.8 1.7 1.5 2.7-0.3 1.3-1.3 2.1-2.6 2.8-0.1 0.1-0.3 0.3-0.3 0.4 0.2 0.2 0.5 0.1 0.8 0 2.3-1 3.9-3.1 5-5.7 0.4 0 0.7 0.5 0.9 1-0.6 1-1.3 2.5-1.3 4 0 0.2 0.4-0.9 0.7-1.4 0.6-1 1.2-1.8 1.9-2.7 0.3-0.4 0.8-1.2 1.3-1.2 0.2 0.1 0.5 0.6 0.6 0.9 0.1 0.7 0 0.7 0.1 2.2-0.2 0.1-0.4 0.6-0.9 0.1-0.2-0.1-0.3-0.6-0.3-0.9-0.4 0.2-0.9 0.9-1.2 1.4-1.2 1.4-1.4 3.5-2.4 3.5-0.3 0-0.5-0.3-0.7-0.6-0.2-0.6-0.1-1.3 0-2.1m-3.8-2.2c-0.2 0.4-1 1.9-0.9 2.3 1.5-0.8 2.5-2.1 1.9-3.3q0 0-0.1 0c-0.3 0.2-0.6 0.7-0.9 1z"/><path class="a" d="m64.9 49.8c0.3 0 0.6 0.2 0.8 0 0.2-0.7-0.5-1.6-1-1.6-0.9 0 0.2 1.5 0.2 1.6z"/><path fill-rule="evenodd" class="a" d="m108.5 51.2c1.2-0.1 1.6 1.5 1.5 2.7-0.1 1.4-1.2 4.1-2.8 4.6-0.9 0.3-0.9-0.4-1-0.6-0.2-0.2-0.2-0.4 0-0.6 0.1 0 0.3 0.2 0.4 0.1 1.2-0.6 1.9-1.9 2.3-3.4 0.3-0.9 0.2-2.1-0.9-0.7-1.3 1.8-2.1 3.9-2.8 6.5-0.1 0.4-0.6 2.7-0.8 2.8-0.7 0.2-0.7-1.1-0.7-1.6 0.1-1.9 1-3.3 1.5-4.8 0 0 0-0.1 0 0-1.1 1.1-1.6 1.8-2.1 2.2-0.4 0.2-0.8 0.3-1.1 0.2-1-0.1-1.6-0.9-1.4-2.4q-0.6 0.6-1.1 1.1c-2.1 2.1-3.1 2-3.6 0.5-2.3 0.5-2.5-1.7-2.9-3.6-0.8 0.7-1.4 2.2-2.6 3.3-0.3 0.3-0.9 0.8-1.3 0.7-0.3 0-0.6-0.7-0.5-1.2 0-0.3 0.3-0.8 0.4-1.1 1.2-2.5 2.5-5.3 3.7-7.7 0.3-0.1 0.4 0.3 0.6 0.5 0.1 0.1 0.1 0.1 0.1 0.4 0 0.5-0.4 1.1-0.6 1.6-0.7 1.5-1.5 3.1-2.1 4.6 0 0 0 0.1 0 0.1 0 0.1 0.1 0.1 0.8-1.2 0.6-0.9 1.4-2 1.7-2.1 0.4 0 0.7 0.6 0.8 0.9 0.1 0.4 0 1.1 0.1 1.7 0 1.1 0.3 2.3 1.4 2.1q0-2 1.1-4c0.4-0.7 0.7-1.3 1.6-1.2 0.9 0.2 1.3 1.5 0.9 2.9-0.5 1.5-2 2.7-2.4 3 0.2 0.7 0.8 0.4 1.5-0.1 1-0.8 2.2-2.3 2.8-3.4 0.4-1.9 1.3-4.7 2.2-5.8 0.5-0.6 1 0.5 1 1.2-0.1 1.6-1.3 3.7-2.2 5.1-0.2 0.6-0.7 2-0.2 2.8 0.3 0.6 1 0 1.5-0.5 1.8-1.6 3.2-3.8 3.8-4.8 0-0.5 0.5-0.6 0.8-0.2 0.3-0.2 0.4-0.5 0.7-0.5m-10.9 1.9c-0.6 0.6-1.2 1.9-1.3 3.4 0.5-0.3 1.5-1.5 1.7-2.4 0-0.4 0.1-0.8 0-1 0-0.3-0.3-0.2-0.5 0z"/><path class="a" d="m115.5 51.2c-0.6-1.2-2.2-0.9-3.1-0.1-0.6 0.5-1.2 1.2-1 2.4 0.1 0.5 0.4 1.1 0.6 1.6 0.2 0.5 0.7 1.2 0.6 1.7-0.1 0.6-1.1 0.7-1.5 0.3-0.5-0.3-0.4-0.7-0.5-1.2-0.2 0-0.7 0.4-0.7 0.6 0 0.2 0.1 0.6 0.2 0.8 0.3 0.8 2 1.8 3.1 0.8 0.9-0.9-0.2-2.8-0.5-3.7-0.2-0.3-0.4-0.8-0.4-1.1 0.1-0.8 1.5-1.9 2.4-1.7 0.4 0 0.4 0.2 0.7 0.4 0.2 0 0.2-0.3 0.2-0.4 0-0.2 0-0.4-0.1-0.5"/><path fill-rule="evenodd" class="a" d="m81.2 56.9c-0.1 0-0.2 0.1-0.3 0.2-0.1 0-0.1 0-0.1 0v0.1q0.1 0.2 0.3 0.3c0.2 0.1 0.5 0.1 0.5 0.1 0 0 0.1-0.1 0.2-0.2q0.1-0.2 0.4-0.2 0.1 0.1 0.2 0.2c0.1 0.1 0.2 0.4 0.1 0.6-0.1 0.2-0.3 0.4-0.5 0.5-0.2 0.1-0.3 0.1-0.6 0.1-0.4 0-0.7-0.1-0.7-0.1-0.4-0.2-0.5-0.5-0.7-0.7q0 0 0-0.1c-0.4 0.2-0.8 0.4-1.3 0.5-1.8 0.2-2.8-1.4-2.7-3.1 0.1-2 1-3.8 1.5-5.3-1 0.4-1.7 0.9-2.9 1.1-0.3 0.5-0.4 1.1-0.6 1.7q-0.5 1.7-0.6 3.8c-0.1 0.7 0.1 1.5-0.3 2-0.9-0.2-0.9-2-0.8-3.2 0.1-0.9 0.3-1.8 0.5-2.5-0.3 0.3-0.5 0.6-0.8 1q-0.1 0.2-0.3 0.5c-0.7 1-1.4 1.8-2.3 2.8 0 0.1-0.1 0.1-0.1 0.2-0.4 0.5-0.8 1-1.3 0.9-0.3-0.1-0.7-0.6-0.7-1-0.2-0.9 0.2-1.6 0.4-2.2q0.3-0.5 0.5-1.1h-0.1c-0.3 0.2-1.7 1.7-2 2q-0.5 0.6-1 1.1c-0.1 0.1-0.2 0.2-0.3 0.3-0.2 0.3-0.5 0.7-0.8 0.9-0.3 0.1-0.4 0.1-0.8 0-0.7-0.1-0.9-1.5-0.5-3.1-0.4 0.3-0.6 0.6-1 1-0.7 0.7-1.4 1.3-2.2 2-0.4 0.3-1 0.9-1.7 0.7-0.6-0.1-1-0.9-1-1.7 0-0.7 0.4-1.5 0.7-2.2 0.8-1.8 1.5-3.5 2-5.5 0.1-0.3 0.1-1 0.4-1.1 0.4-0.1 0.4 0.6 0.8 0.6-0.3 1.7-1.7 5.1-2.2 6.5-0.3 0.7-0.6 1.4-0.6 2.3 1.2-0.6 2.1-1.6 3-2.6 0.9-0.8 1.8-1.8 2.5-2.9q0.1-0.2 0.2-0.5 0.5 0 0.7 0.3c0.3 0.4 0.2 1.1 0 1.8-0.1 0.1-0.2 0.7-0.2 0.8-0.1 0.5-0.2 0.8-0.4 1.4-0.1 0.7-0.1 0.7-0.1 0.7 0 0 0.2 0 0.6-0.4 0.4-0.4 1-1 1.5-1.5 0.7-0.8 1.5-1.6 2.2-2.4l0.1-0.1c0 0-0.8-0.1-1.1 0-0.3 0.1-0.5 0.1-0.7 0.1-0.2-0.1-0.4-0.2-0.4-0.5-0.1-0.2-0.1-0.4 0-0.6 0.4 0.1 0.8 0 1.3 0 0.2 0 0.6 0 0.7 0 0.2 0 0.5 0 0.8-0.1 0.1-0.1 0.3-0.1 0.3-0.1 0 0 0-0.1 0.1-0.2 0.1-0.1 0.3-0.5 0.5-0.9 0.1-0.3 0.2-0.6 0.5-0.6q0.1 0 0.2 0.1c0.2 0.2 0.4 0.5 0.4 0.8q0 0.2-0.1 0.3 0 0.1-0.1 0.2 0.8 0 1.5-0.2c0.4 0 0.7-0.1 1.1-0.1 0.2-0.4 0.4-0.8 0.6-1.3 0.2-0.4 0.4-0.8 0.7-1.2v-0.1c0.9 0.1 0.8 1.3 0.5 2.1 0.5-0.1 1.1-0.3 1.6-0.5 0.5-0.2 1.1-0.5 1.5-0.7 0.1-0.2 0.2-0.5 0.4-0.5 0.4-0.1 0.7 0.4 0.7 0.8 0 0.4-0.5 1.3-0.7 1.7-0.4 1.2-0.8 2.2-1.1 3.5-0.3 1.2-0.7 2.8 0.7 2.9 0.6 0.1 1.2-0.1 1.7-0.4-0.3-1.5 0.4-3.3 1.3-4.4 0.3-0.3 0.9-0.8 1.5-0.9 0.3-0.1 0.7 0 0.9 0.2 0.3 0.3 0.5 0.7 0.5 1.3 0 1.4-0.9 2.7-2.7 4m-8.9-5.3h-0.1q-1 0.1-2.1 0.4c-0.1 0.3-0.1 0.5-0.2 0.7-0.5 1.2-0.9 2.5-1.4 3.6v0.2l0.1-0.1c0.7-0.7 1.3-1.4 1.8-2.1l0.1-0.2c0.1-0.1 0.2-0.2 0.3-0.3 0.5-0.7 1.1-1.4 1.5-2.2zm9.8 3c0.9-1.1 0.9-1.7 0.8-2-0.1 0 0.3 0-0.1 0-0.3 0-0.6 0.1-0.7 0.3-0.7 0.6-1.3 2-1.4 3.1 0.5-0.4 1-0.9 1.4-1.4z"/><path class="a" d="m95.8 42.9h11.5c2.2 0 3.3-0.9 4.7-2.2 0 0 1.9-2 3.3-2.6 0 0 0-0.1 0-0.1h-12.1c-2 0-3.5 1.2-4.3 2.1 0 0-1.9 2-3.1 2.7q0 0 0 0c0 0 0 0.1 0 0.1"/><path class="a" d="m95.6 38.1c0 0 0-0.1 0-0.1h-12.1c-1.9 0-3.5 1.2-4.3 2.1 0 0-1.8 2-3.1 2.7q0 0 0 0c0 0 0 0.1 0 0.1h11.6c2.2 0 3.3-0.8 4.7-2.2 0 0 1.9-1.9 3.2-2.5"/><path class="a" d="m72.6 40.7c0 0 1.9-2 3.3-2.6 0 0 0-0.1 0-0.1h-12.1c-1.9 0-3.5 1.2-4.2 2.1 0 0-1.9 2-3.2 2.7q0 0 0 0c0 0 0 0.1 0 0.1h11.6c2.2 0 3.3-0.8 4.7-2.2"/><path class="a" d="m56.3 38h-12.1c-1.9 0-3.5 1.1-4.3 2.1 0 0-1.8 1.9-3.1 2.7q0-0.1 0 0c0 0 0 0.1 0 0.1h11.6c2.2 0 3.3-0.9 4.7-2.2 0 0 1.9-2 3.2-2.6 0 0 0-0.1 0-0.1"/><path class="a" d="m17.1 42.9h11.5c2.2 0 3.3-0.9 4.7-2.2 0 0 1.9-2 3.3-2.6 0 0 0-0.1 0-0.1h-12.1c-2 0-3.5 1.2-4.3 2.1 0 0-1.9 2-3.1 2.7q0 0 0 0c0 0 0 0.1 0 0.1"/><path class="b" d="m17.8 19.8c1.4-1.2 4.4-1.7 7.7-1.7v11.8c0 1.8-0.2 2.3-0.9 3.2h6.4c-0.7-0.9-0.8-1.4-0.8-3.2v-11.8c3.2 0 6.2 0.4 7.7 1.7v-4.4h-20.1v4.4z"/><path class="b" d="m45 30.4v-5.1h1.2c1.2 0 3 0.1 4.2 0.5v-3.5c-1.2 0.4-3 0.5-4.2 0.5h-1.2v-4.7h1.7c2 0 5.4 0.4 6.8 1.7v-4.4h-13.8c0.7 0.8 0.8 1.4 0.8 3.1v11.6c0 1.6-0.1 2.2-0.8 3.1h14.5v-4.4c-1.3 1.2-4.7 1.7-6.8 1.7h-2.4z"/><path class="b" d="m74.3 24.3c0 5.8 5 9.3 12 9.3 7 0 3.9-0.3 5.3-0.7v-4.4c-1.4 1.4-3.1 2.3-5.3 2.3-4 0-6.7-2.8-6.7-6.5 0-3.8 2.7-6.6 6.7-6.6 4.1 0 3.9 0.9 5.3 2.4v-4.4c-1.4-0.4-3.2-0.7-5.3-0.7-6.9 0-12 3.5-12 9.3z"/><path class="b" d="m66.6 22.2c-3.4-0.4-6-0.7-6-2.4 0-1.8 1.8-2.1 3.7-2.1 2.8 0 5.6 1 7.6 2.7v-4.3c-2.4-0.7-4.8-1.1-7.4-1.1-4 0-8.2 1.4-8.2 5.8 0 3.2 3 4.7 6.4 5.2 3.8 0.6 5.7 1 5.7 2.6 0 1.7-2 2.2-4.2 2.2-2.2 0-5.1-0.5-7.9-2.4v4c2 0.8 4.7 1.1 7.9 1.1 4.5 0 8.7-1.4 8.7-5.8 0-4.4-2.9-5-6.4-5.5"/><path fill-rule="evenodd" class="b" d="m115.5 24.2c0 5.1-4.1 9.3-11.3 9.3-7.2 0-11.3-4.2-11.3-9.3 0-5 4.1-9.2 11.3-9.2 7.2 0 11.3 4.2 11.3 9.2zm-5.3 0.1c0-3.6-2.4-6.6-6-6.6-3.6 0-6 3-6 6.6 0 3.6 2.4 6.5 6 6.5 3.6 0 6-2.9 6-6.5z"/></svg>