<svg version="1.2" xmlns="http://www.w3.org/2000/svg" viewBox="0 0 79 17" width="79" height="17"><style>.a{fill:none;stroke:#000}</style><filter id="f0"><feFlood flood-color="#ffffff" flood-opacity="1" /><feBlend mode="normal" in2="SourceGraphic"/><feComposite in2="SourceAlpha" operator="in" /></filter><g filter="url(#f0)"><path fill-rule="evenodd" d="m4 13.6q-0.9 0-1.7-0.3-0.7-0.4-1.2-1-0.5-0.7-0.6-1.4l1.4-0.9q0.3 0.8 0.8 1.4 0.5 0.5 1.3 0.5 0.6 0 0.9-0.3 0.4-0.3 0.4-0.8 0-0.6-0.4-0.9-0.5-0.3-1.5-0.8-1.1-0.5-1.7-1.1-0.6-0.7-0.6-1.8 0-0.7 0.4-1.3 0.4-0.6 1-0.9 0.6-0.4 1.4-0.4 2.1 0 2.8 1.8l-1.4 0.9q-0.4-1-1.4-1-0.4 0-0.7 0.2-0.3 0.3-0.3 0.7 0 0.4 0.2 0.7 0.3 0.2 0.6 0.4 0.4 0.2 1.1 0.5 1.1 0.5 1.7 1.2 0.6 0.6 0.6 1.7 0 0.8-0.4 1.5-0.4 0.7-1.1 1-0.7 0.4-1.6 0.4zm4.6-10h1.7v3.8q0.4-0.5 1-0.9 0.6-0.3 1.3-0.3 1.2 0 1.8 0.6 0.7 0.7 0.7 1.9v4.8h-1.8v-4.4q0-0.7-0.3-1-0.3-0.3-0.9-0.3-0.7 0-1.3 0.6-0.5 0.6-0.5 2v3.1h-1.7zm8 6.3q0-1.1 0.4-1.9 0.5-0.9 1.3-1.3 0.9-0.5 2-0.5 1.1 0 1.9 0.5 0.9 0.4 1.3 1.3 0.5 0.8 0.5 1.9 0 1.1-0.5 1.9-0.4 0.9-1.3 1.3-0.8 0.5-1.9 0.5-1.1 0-2-0.5-0.8-0.4-1.3-1.3-0.4-0.8-0.4-1.9zm1.7 0q0 1 0.6 1.5 0.5 0.6 1.4 0.6 0.8 0 1.4-0.6 0.5-0.5 0.5-1.5 0-1-0.5-1.5-0.6-0.6-1.4-0.6-0.9 0-1.4 0.6-0.6 0.5-0.6 1.5zm7.2-3.6h1.7v0.9q0.3-0.4 0.9-0.7 0.6-0.3 1.3-0.3 0.9 0 1.6 0.5 0.7 0.4 1.1 1.3 0.4 0.8 0.4 1.9 0 1.1-0.4 1.9-0.4 0.9-1.2 1.3-0.7 0.5-1.6 0.5-0.7 0-1.2-0.2-0.5-0.3-0.9-0.7v3.7h-1.7zm3.4 5.7q0.8 0 1.3-0.6 0.5-0.5 0.5-1.5 0-1-0.5-1.6-0.5-0.5-1.3-0.5-0.8 0-1.3 0.5-0.5 0.6-0.5 1.6 0 1 0.5 1.5 0.5 0.6 1.3 0.6zm8.6-5.7h1.7v1.1q0.4-0.6 1-0.9 0.5-0.3 1.2-0.3 1.2 0 1.8 0.6 0.7 0.7 0.7 1.9v4.8h-1.8v-4.3q0-1.4-1.2-1.4-0.8 0-1.2 0.7-0.5 0.6-0.5 1.8v3.2h-1.7zm7.8 3.6q0-1.1 0.5-1.9 0.5-0.9 1.3-1.3 0.9-0.5 2-0.5 1 0 1.9 0.5 0.8 0.4 1.3 1.3 0.5 0.8 0.5 1.9 0 1.1-0.5 1.9-0.5 0.9-1.3 1.4-0.9 0.4-1.9 0.4-1.1 0-2-0.4-0.8-0.5-1.3-1.4-0.5-0.8-0.5-1.9zm1.8 0q0 1 0.5 1.5 0.6 0.6 1.5 0.6 0.8 0 1.4-0.6 0.5-0.5 0.5-1.5 0-0.9-0.5-1.5-0.6-0.6-1.4-0.6-0.9 0-1.5 0.6-0.5 0.6-0.5 1.5zm14.3 3.6h-1.7l-1.2-4.7-1.2 4.7h-1.7l-2.2-7.2h1.6l1.4 4.7 1.3-4.7h1.6l1.3 4.7 1.4-4.7h1.7z"/><path fill-rule="evenodd" class="a" d="m72 4.3l6 5.3-6 5.4"/></g></svg>