<?xml version="1.0" encoding="UTF-8"?><svg id="Layer_2" xmlns="http://www.w3.org/2000/svg" viewBox="0 0 76.88 98.95"><defs><style>.cls-1{fill:#003adc;}.cls-2{fill:#fcd700;}.cls-3{fill:#fff;}</style></defs><g id="AW"><rect class="cls-3" y="57.17" width="76.88" height="3.85"/><path class="cls-2" d="M76.88,27.36v29.81H0v-29.81c0-.14.01-.28.02-.41.13-2.07,1.59-4.02,3.52-4.91.36-.16.73-.3,1.11-.4,3.94-1,11-1.71,19.25-2.1,4.42-.22,9.11-.32,13.79-.34h1.48c4.68.01,9.37.12,13.79.34,8.25.38,15.31,1.1,19.25,2.1.38.1.75.24,1.11.4,1.92.89,3.39,2.84,3.52,4.91.01.13.02.27.02.41Z"/><path class="cls-1" d="M76.88,61.01v29.79c0,.14-.01.28-.02.41-.13,2.07-1.59,4.01-3.52,4.9-.36.17-.73.31-1.11.41-3.94,1-11,1.71-19.25,2.11-4.42.21-9.11.32-13.78.32-.24.01-.75.01-.75.01-.01,0-.51,0-.75-.01-4.67,0-9.36-.12-13.78-.32-8.25-.39-15.31-1.11-19.25-2.11-.38-.09-.75-.23-1.11-.41-1.93-.89-3.39-2.83-3.52-4.9-.01-.13-.02-.27-.02-.41v-29.79h76.88Z"/><rect class="cls-3" x=".16" y=".1" width="76.61" height="15.16" rx="6.3" ry="6.3"/><path d="M70.47.2c3.42,0,6.2,2.78,6.2,6.2v2.56c0,3.42-2.78,6.2-6.2,6.2H6.46C3.04,15.16.26,12.38.26,8.96v-2.56C.26,2.98,3.04.2,6.46.2h64.01M70.47,0H6.46C2.94,0,.06,2.88.06,6.4v2.56c0,3.52,2.88,6.4,6.4,6.4h64.01c3.52,0,6.4-2.88,6.4-6.4v-2.56c0-3.52-2.88-6.4-6.4-6.4h0Z"/><path class="cls-3" d="M25.32,89.93h-1.77v-9.52h3.49c1.94,0,3.07,1.29,3.07,2.95s-1.13,2.95-3.07,2.95h-1.73v3.62ZM28.32,83.37c0-.9-.57-1.32-1.41-1.32h-1.59v2.64h1.59c.84,0,1.41-.42,1.41-1.32ZM31.16,82.92h1.69v1.06c.41-.76,1.17-1.17,2.05-1.17.45,0,.83.11,1.09.31l-.57,1.43c-.23-.12-.48-.19-.75-.19-.96,0-1.82.76-1.82,2.77v2.8h-1.69v-7.02ZM37.73,80.01c.63,0,1.09.48,1.09,1.09s-.46,1.09-1.09,1.09-1.09-.48-1.09-1.09.46-1.09,1.09-1.09ZM38.57,89.93h-1.69v-7.02h1.69v7.02ZM39.84,86.43c0-2.12,1.44-3.62,3.54-3.62,1.5,0,2.6.6,3.17,1.92l-1.54.69c-.34-.68-.86-1.06-1.63-1.06-1.05,0-1.82.83-1.82,2.07s.77,2.07,1.82,2.07c.77,0,1.29-.38,1.63-1.06l1.54.69c-.57,1.32-1.67,1.92-3.17,1.92-2.09,0-3.54-1.5-3.54-3.62ZM54.07,86.97h-5.18c.19,1.07.95,1.58,1.86,1.58.83,0,1.31-.37,1.77-1.02l1.43.77c-.65,1.05-1.63,1.74-3.29,1.74-2.35,0-3.49-1.86-3.49-3.62s1.24-3.62,3.48-3.62,3.43,1.74,3.43,3.47v.69ZM52.34,85.64c-.12-.76-.75-1.36-1.7-1.36-.76,0-1.44.49-1.69,1.36h3.39ZM10.51,71.68c0-3.18,2.22-4.87,4.6-4.87,1.97,0,3.43.95,3.98,2.68l-1.54.61c-.3-.95-1.13-1.66-2.45-1.66-1.47,0-2.8,1.03-2.8,3.24s1.33,3.24,2.8,3.24c1.32,0,2.15-.68,2.45-1.66l1.54.61c-.56,1.73-2.01,2.68-3.98,2.68-2.38,0-4.6-1.69-4.6-4.87ZM21.93,76.44h-1.69v-9.63h1.69v9.63ZM29.8,76.44h-1.69v-1.1c-.46.73-1.22,1.21-2.15,1.21-1.51,0-2.35-.97-2.35-2.5v-4.62h1.69v4.21c0,.87.37,1.36,1.18,1.36,1.05,0,1.63-.97,1.63-2.52v-3.06h1.69v7.02ZM33.19,75.59v.84h-1.69v-9.63h1.69v3.47c.45-.58,1.17-.97,2.05-.97,1.82,0,3.06,1.51,3.06,3.62s-1.39,3.62-3.1,3.62c-.99,0-1.67-.44-2.01-.95ZM36.56,72.93c0-1.31-.77-2.07-1.74-2.07s-1.74.76-1.74,2.07.77,2.07,1.74,2.07,1.74-.76,1.74-2.07ZM39.14,72.93c0-2.12,1.44-3.62,3.54-3.62,1.5,0,2.6.6,3.17,1.92l-1.54.69c-.34-.68-.86-1.06-1.63-1.06-1.05,0-1.82.83-1.82,2.07s.77,2.07,1.82,2.07c.77,0,1.29-.38,1.63-1.06l1.54.69c-.57,1.32-1.67,1.92-3.17,1.92-2.09,0-3.54-1.5-3.54-3.62ZM46.6,74.47c0-1.36,1.1-2.3,2.87-2.3h1.51v-.24c0-.71-.53-1.17-1.36-1.17-.73,0-1.28.46-1.52.88l-1.29-.77c.45-.8,1.39-1.55,2.81-1.55,1.89,0,3.05.94,3.05,2.69v4.43h-1.39l-.23-.9c-.42.58-1.1,1.01-2.09,1.01-1.2,0-2.35-.72-2.35-2.08ZM50.97,73.69v-.19h-1.33c-.79,0-1.28.33-1.28.84,0,.48.34.76.99.76.9,0,1.62-.61,1.62-1.41ZM54.2,69.42h1.69v1.06c.41-.76,1.17-1.17,2.05-1.17.45,0,.83.11,1.09.31l-.57,1.43c-.23-.12-.48-.19-.75-.19-.96,0-1.82.76-1.82,2.77v2.8h-1.69v-7.02ZM59.2,72.93c0-2.11,1.24-3.62,3.06-3.62.94,0,1.67.34,2.05.97v-3.47h1.69v9.63h-1.69v-.84c-.37.52-1.05.95-2.04.95-1.74,0-3.07-1.51-3.07-3.62ZM64.42,72.93c0-1.31-.77-2.07-1.74-2.07s-1.74.76-1.74,2.07.77,2.07,1.74,2.07,1.74-.76,1.74-2.07Z"/></g></svg>