<?xml version="1.0" encoding="UTF-8"?>
<svg width="40px" height="40px" viewBox="0 0 40 40" version="1.1" xmlns="http://www.w3.org/2000/svg" xmlns:xlink="http://www.w3.org/1999/xlink">
    <title>brand-light</title>
    <g id="brand-light" stroke="none" stroke-width="1" fill="none" fill-rule="evenodd">
        <circle id="Combined-Shape" stroke="#323639" fill="#E7EAED" cx="20" cy="20" r="19.5"></circle>
        <path d="M18.2658558,12.7588345 L20.7995198,16.6594539 C19.5406975,16.4705224 18.2104656,16.7233755 17.0589492,17.4711789 C14.5577504,19.0954764 13.8468814,22.439852 15.4711789,24.9410508 C17.0954764,27.4422496 20.439852,28.1531186 22.9410508,26.5288211 C24.0925672,25.7810176 24.864614,24.6686349 25.2040257,23.4417981 L27.7368848,27.3429402 C27.0593063,28.3249133 26.1822837,29.193393 25.1196069,29.8835033 C20.7656683,32.7109842 14.9439775,31.4735456 12.1164967,27.1196069 C9.28901583,22.7656683 10.5264544,16.9439775 14.8803931,14.1164967 C15.9430699,13.4263863 17.0931827,12.9784288 18.2658558,12.7588345 Z M23.4460769,10.0447036 L27.8835033,16.8803931 C29.6215655,19.5567741 29.823656,22.7877603 28.7100661,25.5369629 L24.7690673,19.4663278 C24.6955844,19.3283921 24.61553,19.1924693 24.5288211,19.0589492 C24.4421121,18.9254292 24.3505015,18.797011 24.2543792,18.6737776 L20.3115266,12.6043463 C20.3204997,12.6046517 20.3294719,12.6049698 20.3384432,12.6053008 L20.3258956,12.5854479 C21.8063807,12.4526045 23.028642,11.4234889 23.4460769,10.0447036 Z M20.2520445,3.57012448 C20.2520445,3.57012448 21.2725851,4.60831451 21.4621592,5.97897628 C21.7017598,5.6836201 21.6034621,5.37955135 21.5640406,5.28639944 L21.5538958,5.26412448 L21.6300586,5.4163996 C21.8168523,5.85869992 21.8095221,6.44492913 21.7536609,7.02573843 L21.7307225,7.24299616 C22.0751154,7.8201169 22.3468383,8.45683164 22.1857003,9.14059426 L22.1968958,9.07312448 L22.1944762,9.15711502 C22.1326491,10.0333204 21.5577199,10.7678654 20.7683289,11.06211 C20.7002233,11.1288015 20.6590093,11.1637866 20.6722671,11.1385612 C20.6811774,11.1195761 20.6893851,11.1014665 20.6969572,11.0841538 C20.4769506,11.1605771 20.2430792,11.2 20,11.2 C19.7240822,11.2 19.460028,11.149206 19.216678,11.0564586 L19.098802,11.0256462 C18.6786729,10.8662959 18.3567397,10.5539394 18.1369004,10.1713881 C17.9235646,9.83183736 17.8,9.43034871 17.8,9 L17.8000011,8.95524616 C17.7992407,8.21980855 18.1863897,7.59480158 18.6880582,6.98266452 C19.0324511,6.55923354 19.3010144,6.05425289 19.5980138,5.56181835 C19.8507793,5.14152389 19.9139707,4.97528803 19.9076515,4.76827733 C19.9013324,4.62713367 19.7875879,4.52676484 19.7875879,4.52676484 C20.1067043,4.73063902 20.2078105,5.29835018 20.2078105,5.29835018 C20.6880649,4.78709648 20.2520445,3.57012448 20.2520445,3.57012448 Z" id="Combined-Shape" fill="#323639"></path>
    </g>
</svg>