<svg id="Capa_1" data-name="Capa 1" xmlns="http://www.w3.org/2000/svg" viewBox="0 0 460.3 366.31"><defs><style>.cls-1{fill:#fff;}</style></defs><title>Artboard 1</title><path class="cls-1" d="M230.15,73.94,66,209.28a3.69,3.69,0,0,1-.15.85,4.12,4.12,0,0,0-.14.86V348A18.55,18.55,0,0,0,84,366.31H193.6V256.67h73.1V366.31H376.33A18.56,18.56,0,0,0,394.61,348V211a4.08,4.08,0,0,0-.29-1.71Z"/><path class="cls-1" d="M457.12,178.44l-62.52-52V10A8.8,8.8,0,0,0,385.46.86H330.65A8.8,8.8,0,0,0,321.51,10V65.67L251.85,7.42a35.43,35.43,0,0,0-43.39,0L3.17,178.44A8.33,8.33,0,0,0,0,184.58a9.23,9.23,0,0,0,2,6.71l17.7,21.13a9.71,9.71,0,0,0,6,3.14,10.61,10.61,0,0,0,6.85-2L230.15,48.82,427.72,213.56a8.77,8.77,0,0,0,6,2h.86a9.76,9.76,0,0,0,6-3.13l17.7-21.13a9.22,9.22,0,0,0,2-6.71A8.31,8.31,0,0,0,457.12,178.44Z"/></svg>