<svg id="Layer_1" data-name="Layer 1" xmlns="http://www.w3.org/2000/svg" viewBox="0 0 21.625 21.625"><defs><style>.cls-1{fill:#fff;}.cls-2{fill:#649236;}.cls-3{fill:#6cb42d;}</style></defs><title>Live</title><path class="cls-1" d="M.261,10.342a7.053,7.053,0,0,0,.017,1.239c.436.149,8.134,5.612,8.134,5.612L16,16.373l3.583-1.942,1.768-2.85a6.553,6.553,0,0,0,.017-1.239c-.054-.7-2.522-1.632-2.522-1.632L12.765,4.369l-7.684.5Z"/><path class="cls-2" d="M18.725,11.581l-1.708,3.587L14.6,9.591,12.048,15.2,9.641,9.635,7.152,15.484,4.7,9.583l-.848,2H.278a10.562,10.562,0,0,0,21.069,0Z"/><path class="cls-3" d="M3.033,10.342,4.714,6.383l2.452,5.9L9.632,6.494l2.445,5.651,2.555-5.606,2.438,5.634.872-1.832h3.421a10.562,10.562,0,0,0-21.1,0Z"/></svg>