<?xml version="1.0" encoding="utf-8"?>
<!-- Generator: Adobe Illustrator 19.2.1, SVG Export Plug-In . SVG Version: 6.00 Build 0)  -->
<svg version="1.1" id="Layer_1" xmlns="http://www.w3.org/2000/svg" xmlns:xlink="http://www.w3.org/1999/xlink" x="0px" y="0px"
	 viewBox="0 0 360.8 80.8" style="enable-background:new 0 0 360.8 80.8;" xml:space="preserve">
<style type="text/css">
	.st0{fill:#575756;}
	.st1{fill:#CCCCCC;}
	.st2{fill:#007EBA;}
	.st3{fill:#AE1B19;}
</style>
<g>
	<g>
		<g>
			<path class="st0" d="M113,0.9v33.4h20.8v7h-28.4V0.9H113z"/>
			<path class="st0" d="M181,21.3c-0.1,10.4-6.5,20.9-20.7,20.9c-14.2,0-20.8-10.2-20.8-20.8c0-10.6,6.8-21.3,20.8-21.3
				C174.2,0.1,181.1,10.8,181,21.3z M147,21.5c0.2,6.6,3.7,13.7,13.3,13.7c9.5,0,13.1-7.2,13.2-13.8c0.1-6.8-3.7-14.4-13.2-14.4
				C150.8,7,146.8,14.7,147,21.5z"/>
			<path class="st0" d="M216,0.9h7.6v40.4h-4.7v0.1l-21.2-27.3v27.2H190V0.9h6.2L216,26V0.9z"/>
			<path class="st0" d="M269.9,20.8c0.2,10.2-6.1,20.5-20.2,20.5c-5,0-10.9,0-15.9,0V0.9c5,0,10.9,0,15.9,0
				C263.6,0.9,269.7,10.8,269.9,20.8z M241.4,34h8.3c9.2,0,12.8-6.7,12.6-13.3c-0.2-6.3-3.9-12.6-12.6-12.6h-8.3V34z"/>
			<path class="st0" d="M318.1,21.3c-0.1,10.4-6.5,20.9-20.7,20.9c-14.2,0-20.8-10.2-20.8-20.8c0-10.6,6.8-21.3,20.8-21.3
				C311.3,0.1,318.2,10.8,318.1,21.3z M284.1,21.5c0.2,6.6,3.7,13.7,13.3,13.7c9.5,0,13.1-7.2,13.2-13.8c0.1-6.8-3.7-14.4-13.2-14.4
				C287.9,7,284,14.7,284.1,21.5z"/>
			<path class="st0" d="M353.2,0.9h7.6v40.4H356v0.1l-21.2-27.3v27.2h-7.6V0.9h6.2l19.8,25V0.9z"/>
			<g>
				<g>
					<path class="st0" d="M121.3,58.2c-1.7-2.8-4.5-3.2-7.1-3.2c-2.8,0-7.1,1-7.1,4.8c0,3,3.2,3.7,7.2,4.5c4.6,0.9,9.3,1.7,9.3,6.8
						c0,5.3-5.4,6.6-9.3,6.6c-3.7,0-7.8-1.5-9.7-5.1l1.6-0.8c1.4,2.9,5.2,4.3,8.1,4.3c2.9,0,7.5-0.8,7.5-5c0-3.5-3.9-4.3-7.8-5.1
						c-4.3-0.8-8.7-1.7-8.7-6.1c-0.1-5,5.1-6.5,9-6.5c3.4,0,6.3,0.5,8.6,4L121.3,58.2z"/>
					<path class="st0" d="M154.1,65.4c0,6.2-4,12.2-11.9,12.2c-7.9,0-11.9-6-11.9-12.2c0-6.3,3.9-12.1,11.9-12.1
						C150.2,53.2,154.2,59.1,154.1,65.4z M132.1,65.4c0,5.3,3.4,10.5,10.1,10.5c6.7,0,10.1-5.2,10.1-10.5c0-5.5-3.4-10.5-10.1-10.5
						C135.5,54.9,132.1,59.8,132.1,65.4z"/>
					<path class="st0" d="M179.5,53.6v14.7c0,12.3-18.1,12.4-18.1,0V53.6h1.8v14.7c0,10.1,14.5,10.1,14.5,0V53.6H179.5z"/>
					<path class="st0" d="M197.8,55.3h-8.5v-1.6h18.9v1.6h-8.5v21.9h-1.8V55.3z"/>
					<path class="st0" d="M233.6,77.2V66.5h-15v10.7h-1.8V53.6h1.8v11.2h15V53.6h1.8v23.6H233.6z"/>
				</g>
				<g>
					<path class="st0" d="M260.7,64.5h13.8v1.7h-13.8v9.3h14.9v1.8H259V53.6h16.3v1.7h-14.5V64.5z"/>
					<path class="st0" d="M304.9,77.2l-2.6-5.8h-14.1l-2.6,5.8h-2l10.6-23.6h2l10.6,23.6H304.9z M301.6,69.7l-6.3-14.4L289,69.7
						H301.6z"/>
					<path class="st0" d="M330.6,58.2c-1.7-2.8-4.5-3.2-7.1-3.2c-2.8,0-7.1,1-7.1,4.8c0,3,3.2,3.7,7.2,4.5c4.5,0.9,9.3,1.7,9.3,6.8
						c0,5.3-5.4,6.6-9.3,6.6c-3.7,0-7.9-1.5-9.7-5.1l1.6-0.8c1.4,2.9,5.2,4.3,8.1,4.3c2.9,0,7.5-0.8,7.5-5c0-3.5-3.9-4.3-7.7-5.1
						c-4.3-0.8-8.7-1.7-8.7-6.1c-0.1-5,5.1-6.5,9-6.5c3.4,0,6.3,0.5,8.6,4L330.6,58.2z"/>
					<path class="st0" d="M350.4,55.3h-8.5v-1.6h18.9v1.6h-8.5v21.9h-1.8V55.3z"/>
				</g>
			</g>
		</g>
	</g>
	<g>
		<g>
			<polygon class="st1" points="14,35.6 0,53.3 42.2,80.8 84.5,53.3 70.4,35.6 42.2,53.9 			"/>
		</g>
		<g>
			<polygon class="st2" points="42.2,29.6 26.8,19.5 14,35.6 42.2,53.9 70.4,35.6 57.7,19.5 			"/>
		</g>
		<g>
			<polygon class="st3" points="26.8,19.5 42.2,29.6 57.7,19.5 42.2,0 			"/>
		</g>
	</g>
</g>
</svg>
