<svg id="Layer_1" data-name="Layer 1" xmlns="http://www.w3.org/2000/svg" xmlns:xlink="http://www.w3.org/1999/xlink" viewBox="0 0 22.677 22.677"><defs><style>.cls-1{fill:#ad191a;}.cls-2{clip-path:url(#clip-path);}.cls-3{fill:#842324;}.cls-4{fill:#811f25;}</style><clipPath id="clip-path"><path id="_Compound_Clipping_Path_" data-name="&lt;Compound Clipping Path&gt;" class="cls-1" d="M20.894,19.728a4.257,4.257,0,0,0-.336-1.549,17.018,17.018,0,0,1-1.232-5.524c.056-2.109.336-4.74.019-6.2a4.73,4.73,0,0,0-2.126-3.3.44.44,0,0,1-.2-.31.687.687,0,0,1,.047-.418c.131-.224.448-1.306-1.885-1.978-1.688-.486-2.359-.005-2.6.3a.645.645,0,0,0-.13.323,1.1,1.1,0,0,1-.1.346.668.668,0,0,1-.548.366A5.217,5.217,0,0,0,7.906,4.277c-.522.709-1.829,3.378-1.829,3.378a11.769,11.769,0,0,1-3.191,4.329C.684,13.775.572,13.961.4,14.5S-.174,18.4,8.373,21.3a17.551,17.551,0,0,0,10.394.56C20.353,21.314,20.912,20.325,20.894,19.728Zm-1.68-.164c-.4,1.493-4.566,1.685-9.316.429s-8.28-3.486-7.885-4.979,4.566-1.685,9.316-.429S19.609,18.071,19.214,19.564Z"/></clipPath></defs><title>Alerts</title><path id="_Compound_Clipping_Path_2" data-name="&lt;Compound Clipping Path&gt;" class="cls-1" d="M20.894,19.728a4.257,4.257,0,0,0-.336-1.549,17.018,17.018,0,0,1-1.232-5.524c.056-2.109.336-4.74.019-6.2a4.73,4.73,0,0,0-2.126-3.3.44.44,0,0,1-.2-.31.687.687,0,0,1,.047-.418c.131-.224.448-1.306-1.885-1.978-1.688-.486-2.359-.005-2.6.3a.645.645,0,0,0-.13.323,1.1,1.1,0,0,1-.1.346.668.668,0,0,1-.548.366A5.217,5.217,0,0,0,7.906,4.277c-.522.709-1.829,3.378-1.829,3.378a11.769,11.769,0,0,1-3.191,4.329C.684,13.775.572,13.961.4,14.5S-.174,18.4,8.373,21.3a17.551,17.551,0,0,0,10.394.56C20.353,21.314,20.912,20.325,20.894,19.728Zm-1.68-.164c-.4,1.493-4.566,1.685-9.316.429s-8.28-3.486-7.885-4.979,4.566-1.685,9.316-.429S19.609,18.071,19.214,19.564Z"/><g class="cls-2"><path class="cls-3" d="M11.24,1.871a7.757,7.757,0,0,1,6.548,1.712c3.013,2.608.863-3.339.863-3.339L11.974-.938,10.619,1.478"/></g><path class="cls-4" d="M11.873,15.754a.448.448,0,0,0-.306.053,1.523,1.523,0,0,0-.75,1.481c.075,1.189,1.456,1.954,2.5,2.178a2.71,2.71,0,0,0,2.594-.616,1.4,1.4,0,0,0,.355-1.215A16.869,16.869,0,0,0,11.873,15.754Z"/></svg>