<?xml version="1.0" encoding="UTF-8"?>
<svg id="Layer_1" xmlns="http://www.w3.org/2000/svg" version="1.1" viewBox="0 0 150 150">
  <!-- Generator: Adobe Illustrator 29.2.0, SVG Export Plug-In . SVG Version: 2.1.0 Build 108)  -->
  <defs>
    <style>
      .st0 {
        fill: #fff;
      }
    </style>
  </defs>
  <path class="st0" d="M16.418,6.355c4.981,0,9.034,4.053,9.034,9.034s-4.053,9.034-9.034,9.034-9.034-4.053-9.034-9.034,4.053-9.034,9.034-9.034M16.418,2.355c-7.198,0-13.034,5.835-13.034,13.034s5.835,13.034,13.034,13.034,13.034-5.835,13.034-13.034S23.616,2.355,16.418,2.355h0Z"/>
  <path class="st0" d="M16.418,45.754c4.981,0,9.034,4.053,9.034,9.034s-4.053,9.034-9.034,9.034-9.034-4.053-9.034-9.034,4.053-9.034,9.034-9.034M16.418,41.754c-7.198,0-13.034,5.835-13.034,13.034s5.835,13.034,13.034,13.034,13.034-5.835,13.034-13.034-5.835-13.034-13.034-13.034h0Z"/>
  <path class="st0" d="M16.418,85.154c4.981,0,9.034,4.053,9.034,9.034s-4.053,9.034-9.034,9.034-9.034-4.053-9.034-9.034,4.053-9.034,9.034-9.034M16.418,81.154c-7.198,0-13.034,5.835-13.034,13.034s5.835,13.034,13.034,13.034,13.034-5.835,13.034-13.034-5.835-13.034-13.034-13.034h0Z"/>
  <path class="st0" d="M16.418,124.553c4.981,0,9.034,4.053,9.034,9.034s-4.053,9.034-9.034,9.034-9.034-4.053-9.034-9.034,4.053-9.034,9.034-9.034M16.418,120.553c-7.198,0-13.034,5.835-13.034,13.034s5.835,13.034,13.034,13.034,13.034-5.835,13.034-13.034-5.835-13.034-13.034-13.034h0Z"/>
  <rect class="st0" x="43.094" y="2.355" width="103.429" height="26.068" rx="2.024" ry="2.024"/>
  <rect class="st0" x="43.094" y="41.754" width="103.429" height="26.068" rx="2.024" ry="2.024"/>
  <rect class="st0" x="43.094" y="81.154" width="103.429" height="26.068" rx="2.024" ry="2.024"/>
  <rect class="st0" x="43.094" y="120.553" width="103.429" height="26.068" rx="2.024" ry="2.024"/>
</svg>