<svg id="Layer_1" data-name="Layer 1" xmlns="http://www.w3.org/2000/svg" viewBox="0 0 32.339 32.339"><defs><style>.cls-1{fill:#fff;}</style></defs><title>watchlist-white</title><rect class="cls-1" x="0.411" y="16.88" width="5.457" height="9.109"/><path class="cls-1" d="M22.391,16.262V12.1a6.171,6.171,0,0,0-5.457-4.068v12.3A6.171,6.171,0,0,0,22.391,16.262Z"/><path class="cls-1" d="M22.391,7.749V2.858H16.934V5.526A8.629,8.629,0,0,1,22.391,7.749Z"/><path class="cls-1" d="M16.594,6.171A8.011,8.011,0,1,0,24.6,14.182h0A8.011,8.011,0,0,0,16.594,6.171Zm0,14.822a6.81,6.81,0,1,1,6.81-6.81h0a6.81,6.81,0,0,1-6.81,6.809Z"/><path class="cls-1" d="M8.673,17.687v8.3H14.13v-3.5A8.7,8.7,0,0,1,8.673,17.687Z"/><path class="cls-1" d="M10.436,14.182a6.167,6.167,0,0,0,3.693,5.643V8.539A6.167,6.167,0,0,0,10.436,14.182Z"/><path class="cls-1" d="M14.129,5.876V5.1H8.673v5.579A8.7,8.7,0,0,1,14.129,5.876Z"/><path class="cls-1" d="M21.7,21.174a8.615,8.615,0,0,1-4.769,1.664v3.151h5.457V21.862Z"/><path class="cls-1" d="M31.785,27.532l-4.964-4.964a.865.865,0,0,1,.051.35v.069a1.518,1.518,0,0,1-1.309,1.406l-.138.019a.868.868,0,0,1-.448-.058l5.014,5.014a.387.387,0,0,0,.325.11l.171-.023a1.668,1.668,0,0,0,1.442-1.549h0A.485.485,0,0,0,31.785,27.532Z"/><path class="cls-1" d="M26.16,22.715l-2.948-2.948a8.74,8.74,0,0,1-.994,1L25.156,23.7a.212.212,0,0,0,.179.06l.137-.019a.862.862,0,0,0,.745-.8v-.068A.212.212,0,0,0,26.16,22.715Z"/></svg>